<?xml version="1.0" encoding="iso-8859-1"?>
<!-- Generator: Adobe Illustrator 19.0.0, SVG Export Plug-In . SVG Version: 6.00 Build 0)  -->
<svg xmlns="http://www.w3.org/2000/svg" xmlns:xlink="http://www.w3.org/1999/xlink" version="1.1" id="Capa_1" x="0px" y="0px" viewBox="0 0 512.001 512.001" style="enable-background:new 0 0 512.001 512.001;" xml:space="preserve" width="512px" height="512px">
<g>
	<g>
		<g>
			<path d="M401.067,170.668H153.6v-50.432c-0.079-27.37,10.727-53.649,30.037-73.045c19.09-19.362,45.173-30.22,72.363-30.123     c56.747,0.259,102.565,46.421,102.4,103.168c0,4.713,3.82,8.533,8.533,8.533s8.533-3.82,8.533-8.533     C375.609,54.073,322.163,0.283,256,0.001c-31.759-0.119-62.221,12.589-84.48,35.243c-22.483,22.562-35.07,53.14-34.987,84.992     v50.432h-25.6c-14.121,0.042-25.558,11.479-25.6,25.6v145.067c0,94.257,76.41,170.667,170.667,170.667     s170.667-76.41,170.667-170.667V196.267C426.625,182.147,415.188,170.71,401.067,170.668z M256,477.868     c-75.405,0-136.533-61.128-136.533-136.533C119.566,265.97,180.636,204.9,256,204.801c75.405,0,136.533,61.128,136.533,136.533     S331.406,477.868,256,477.868z" fill="#FFFFFF"/>
			<path d="M267.947,222.55c-0.734-0.127-1.475-0.213-2.219-0.256c-3.243-0.256-6.485-0.427-9.728-0.427     c-65.98,0-119.467,53.487-119.467,119.467S190.021,460.801,256,460.801c63.638,0.009,116.104-49.885,119.291-113.443     S331.267,228.907,267.947,222.55z M170.667,358.401c0,4.713-3.82,8.533-8.533,8.533c-4.713,0-8.533-3.82-8.533-8.533v-17.067     c0-4.713,3.82-8.533,8.533-8.533c4.713,0,8.533,3.821,8.533,8.533V358.401z M247.467,238.934h17.067     c0.573,0.01,1.143,0.067,1.707,0.171c4.296,0.872,7.233,4.858,6.792,9.22s-4.115,7.68-8.499,7.676h-17.067     c-4.713,0-8.533-3.82-8.533-8.533S242.754,238.934,247.467,238.934z M201.728,419.756c-1.602,1.621-3.78,2.541-6.059,2.56     c-2.282-0.002-4.467-0.925-6.059-2.56l-12.032-12.032c-3.328-3.354-3.328-8.764,0-12.117c3.328-3.309,8.704-3.309,12.032,0     l12.117,12.117C205.037,411.052,205.037,416.427,201.728,419.756z M201.728,274.945l-12.117,12.117     c-3.346,3.323-8.752,3.303-12.075-0.043c-3.323-3.346-3.303-8.752,0.043-12.075l12.032-12.032c3.354-3.328,8.764-3.328,12.117,0     C205.037,266.241,205.037,271.616,201.728,274.945z M264.534,443.734h-17.067c-4.713,0-8.533-3.82-8.533-8.533     s3.82-8.533,8.533-8.533h17.067c4.713,0,8.533,3.82,8.533,8.533S269.247,443.734,264.534,443.734z M304.726,390.059     c-3.365,3.3-8.752,3.3-12.117,0l-42.667-42.667c-1.572-1.627-2.458-3.796-2.475-6.059v-59.733c0-4.713,3.82-8.533,8.533-8.533     s8.533,3.821,8.533,8.533v56.235l40.192,40.107C308.054,381.296,308.054,386.706,304.726,390.059z M334.422,407.723     l-12.032,12.032c-1.592,1.635-3.777,2.558-6.059,2.56c-2.279-0.019-4.457-0.939-6.059-2.56c-3.309-3.328-3.309-8.704,0-12.032     l12.117-12.117c3.328-3.309,8.704-3.309,12.032,0C337.75,398.96,337.75,404.37,334.422,407.723z M334.464,287.02     c-3.323,3.346-8.729,3.365-12.075,0.043l-12.117-12.117c-3.309-3.328-3.309-8.704,0-12.032c3.354-3.328,8.764-3.328,12.117,0     l12.032,12.032C337.768,278.267,337.787,283.673,334.464,287.02z M341.334,332.801c0-4.713,3.821-8.533,8.533-8.533     s8.533,3.821,8.533,8.533v17.067c0,4.713-3.82,8.533-8.533,8.533s-8.533-3.82-8.533-8.533V332.801z" fill="#FFFFFF"/>
		</g>
	</g>
</g>
<g>
</g>
<g>
</g>
<g>
</g>
<g>
</g>
<g>
</g>
<g>
</g>
<g>
</g>
<g>
</g>
<g>
</g>
<g>
</g>
<g>
</g>
<g>
</g>
<g>
</g>
<g>
</g>
<g>
</g>
</svg>
